<?xml version="1.0" encoding="utf-8"?>
<!-- Generator: Adobe Illustrator 24.1.1, SVG Export Plug-In . SVG Version: 6.00 Build 0)  -->
<svg version="1.1" id="Layer_1" xmlns="http://www.w3.org/2000/svg" xmlns:xlink="http://www.w3.org/1999/xlink" x="0px" y="0px"
	 viewBox="0 0 512 512" style="enable-background:new 0 0 512 512;" xml:space="preserve">
<style type="text/css">
	.st0{fill:#333333;}
</style>
<g id="XMLID_1_">
	<path id="XMLID_12_" class="st0" d="M102.4,222.1H68.5V51.2h33.9V222.1z M68.5,460.8h33.9V358.4H68.5V460.8z M238.7,460.8h33.9V256
		h-33.9V460.8z M409.6,460.8h33.9v-68.5h-33.9V460.8z M443.5,51.2h-33.9V256h33.9V51.2z M273.3,51.2h-33.9v68.5h33.9V51.2z
		 M136.3,256H33.9C15,256,0,271,0,289.9s15,33.9,33.9,33.9h102.4c18.9,0,33.9-15,33.9-33.9S155.2,256,136.3,256z M307.2,153.6H204.8
		c-18.9,0-33.9,15-33.9,33.9s15,33.9,33.9,33.9h102.4c18.9,0,33.9-15,33.9-33.9S326.1,153.6,307.2,153.6z M478.1,289.9H375.7
		c-18.9,0-33.9,15-33.9,33.9s15,33.9,33.9,33.9h102.4c18.9,0,33.9-15,33.9-33.9S497,289.9,478.1,289.9z"/>
</g>
</svg>
